<svg id="visual" viewBox="0 0 1024 800" width="1024" height="800" xmlns="http://www.w3.org/2000/svg" xmlns:xlink="http://www.w3.org/1999/xlink" version="1.1"><rect x="0" y="0" width="1024" height="800" fill="#f0f8ff"></rect><g transform="translate(458.5524663651888 419.2176330621563)"><path d="M105.1 -177.1C160.3 -150.3 245.5 -170.6 299.7 -149C353.9 -127.3 376.9 -63.7 351 -15C325 33.7 250 67.3 212.8 118.4C175.6 169.5 176.3 238 147.2 250.7C118 263.4 59 220.2 14.7 194.8C-29.7 169.4 -59.3 161.8 -99.2 155.3C-139 148.8 -189 143.4 -205.3 117.7C-221.7 92 -204.3 46 -215 -6.2C-225.7 -58.3 -264.4 -116.7 -252.5 -150C-240.6 -183.4 -178 -191.7 -127.5 -221.2C-77 -250.7 -38.5 -301.4 -6.7 -289.7C25 -278 50 -203.9 105.1 -177.1" fill="#bbe8ff"></path></g></svg>