<svg id="visual" viewBox="0 0 1024 300" width="1024" height="300" xmlns="http://www.w3.org/2000/svg" xmlns:xlink="http://www.w3.org/1999/xlink" version="1.1"><rect x="0" y="0" width="1024" height="300" fill="#85b3f8"></rect><path d="M0 181L8.2 184.7C16.3 188.3 32.7 195.7 49 187.3C65.3 179 81.7 155 97.8 152.5C114 150 130 169 146.2 172.8C162.3 176.7 178.7 165.3 195 157.3C211.3 149.3 227.7 144.7 244 138.3C260.3 132 276.7 124 292.8 130.2C309 136.3 325 156.7 341.2 168.7C357.3 180.7 373.7 184.3 390 184.7C406.3 185 422.7 182 439 162.3C455.3 142.7 471.7 106.3 487.8 94.3C504 82.3 520 94.7 536.2 116.2C552.3 137.7 568.7 168.3 585 180.8C601.3 193.3 617.7 187.7 634 172.7C650.3 157.7 666.7 133.3 682.8 129.8C699 126.3 715 143.7 731.2 148.3C747.3 153 763.7 145 780 142.5C796.3 140 812.7 143 829 136.5C845.3 130 861.7 114 877.8 116.5C894 119 910 140 926.2 144.8C942.3 149.7 958.7 138.3 975 145.2C991.3 152 1007.7 177 1015.8 189.5L1024 202L1024 301L1015.8 301C1007.7 301 991.3 301 975 301C958.7 301 942.3 301 926.2 301C910 301 894 301 877.8 301C861.7 301 845.3 301 829 301C812.7 301 796.3 301 780 301C763.7 301 747.3 301 731.2 301C715 301 699 301 682.8 301C666.7 301 650.3 301 634 301C617.7 301 601.3 301 585 301C568.7 301 552.3 301 536.2 301C520 301 504 301 487.8 301C471.7 301 455.3 301 439 301C422.7 301 406.3 301 390 301C373.7 301 357.3 301 341.2 301C325 301 309 301 292.8 301C276.7 301 260.3 301 244 301C227.7 301 211.3 301 195 301C178.7 301 162.3 301 146.2 301C130 301 114 301 97.8 301C81.7 301 65.3 301 49 301C32.7 301 16.3 301 8.2 301L0 301Z" fill="#69abfa"></path><path d="M0 187L8.2 187.8C16.3 188.7 32.7 190.3 49 191.7C65.3 193 81.7 194 97.8 180.3C114 166.7 130 138.3 146.2 140.5C162.3 142.7 178.7 175.3 195 193.8C211.3 212.3 227.7 216.7 244 207.3C260.3 198 276.7 175 292.8 165C309 155 325 158 341.2 164.7C357.3 171.3 373.7 181.7 390 189C406.3 196.3 422.7 200.7 439 187.5C455.3 174.3 471.7 143.7 487.8 130.7C504 117.7 520 122.3 536.2 138.2C552.3 154 568.7 181 585 197C601.3 213 617.7 218 634 201.5C650.3 185 666.7 147 682.8 144.5C699 142 715 175 731.2 184.7C747.3 194.3 763.7 180.7 780 173C796.3 165.3 812.7 163.7 829 170.3C845.3 177 861.7 192 877.8 201.5C894 211 910 215 926.2 215.8C942.3 216.7 958.7 214.3 975 205.7C991.3 197 1007.7 182 1015.8 174.5L1024 167L1024 301L1015.8 301C1007.7 301 991.3 301 975 301C958.7 301 942.3 301 926.2 301C910 301 894 301 877.8 301C861.7 301 845.3 301 829 301C812.7 301 796.3 301 780 301C763.7 301 747.3 301 731.2 301C715 301 699 301 682.8 301C666.7 301 650.3 301 634 301C617.7 301 601.3 301 585 301C568.7 301 552.3 301 536.2 301C520 301 504 301 487.8 301C471.7 301 455.3 301 439 301C422.7 301 406.3 301 390 301C373.7 301 357.3 301 341.2 301C325 301 309 301 292.8 301C276.7 301 260.3 301 244 301C227.7 301 211.3 301 195 301C178.7 301 162.3 301 146.2 301C130 301 114 301 97.8 301C81.7 301 65.3 301 49 301C32.7 301 16.3 301 8.2 301L0 301Z" fill="#5799ee"></path><path d="M0 152L8.2 161.3C16.3 170.7 32.7 189.3 49 196C65.3 202.7 81.7 197.3 97.8 194.3C114 191.3 130 190.7 146.2 192.2C162.3 193.7 178.7 197.3 195 192.2C211.3 187 227.7 173 244 165.5C260.3 158 276.7 157 292.8 168.5C309 180 325 204 341.2 206.7C357.3 209.3 373.7 190.7 390 184C406.3 177.3 422.7 182.7 439 194.2C455.3 205.7 471.7 223.3 487.8 222C504 220.7 520 200.3 536.2 186.2C552.3 172 568.7 164 585 172.8C601.3 181.7 617.7 207.3 634 211.8C650.3 216.3 666.7 199.7 682.8 199.2C699 198.7 715 214.3 731.2 221.3C747.3 228.3 763.7 226.7 780 217.5C796.3 208.3 812.7 191.7 829 192.3C845.3 193 861.7 211 877.8 210.3C894 209.7 910 190.3 926.2 189C942.3 187.7 958.7 204.3 975 200.8C991.3 197.3 1007.7 173.7 1015.8 161.8L1024 150L1024 301L1015.8 301C1007.7 301 991.3 301 975 301C958.7 301 942.3 301 926.2 301C910 301 894 301 877.8 301C861.7 301 845.3 301 829 301C812.7 301 796.3 301 780 301C763.7 301 747.3 301 731.2 301C715 301 699 301 682.8 301C666.7 301 650.3 301 634 301C617.7 301 601.3 301 585 301C568.7 301 552.3 301 536.2 301C520 301 504 301 487.8 301C471.7 301 455.3 301 439 301C422.7 301 406.3 301 390 301C373.7 301 357.3 301 341.2 301C325 301 309 301 292.8 301C276.7 301 260.3 301 244 301C227.7 301 211.3 301 195 301C178.7 301 162.3 301 146.2 301C130 301 114 301 97.8 301C81.7 301 65.3 301 49 301C32.7 301 16.3 301 8.2 301L0 301Z" fill="#4687e1"></path><path d="M0 220L8.2 222.2C16.3 224.3 32.7 228.7 49 228.2C65.3 227.7 81.7 222.3 97.8 218.5C114 214.7 130 212.3 146.2 212.3C162.3 212.3 178.7 214.7 195 219.8C211.3 225 227.7 233 244 228.8C260.3 224.7 276.7 208.3 292.8 208C309 207.7 325 223.3 341.2 228.5C357.3 233.7 373.7 228.3 390 223.3C406.3 218.3 422.7 213.7 439 209.7C455.3 205.7 471.7 202.3 487.8 209C504 215.7 520 232.3 536.2 231.2C552.3 230 568.7 211 585 203.2C601.3 195.3 617.7 198.7 634 207.3C650.3 216 666.7 230 682.8 237.5C699 245 715 246 731.2 247.7C747.3 249.3 763.7 251.7 780 252.7C796.3 253.7 812.7 253.3 829 243.5C845.3 233.7 861.7 214.3 877.8 209.2C894 204 910 213 926.2 222.7C942.3 232.3 958.7 242.7 975 244C991.3 245.3 1007.7 237.7 1015.8 233.8L1024 230L1024 301L1015.8 301C1007.7 301 991.3 301 975 301C958.7 301 942.3 301 926.2 301C910 301 894 301 877.8 301C861.7 301 845.3 301 829 301C812.7 301 796.3 301 780 301C763.7 301 747.3 301 731.2 301C715 301 699 301 682.8 301C666.7 301 650.3 301 634 301C617.7 301 601.3 301 585 301C568.7 301 552.3 301 536.2 301C520 301 504 301 487.8 301C471.7 301 455.3 301 439 301C422.7 301 406.3 301 390 301C373.7 301 357.3 301 341.2 301C325 301 309 301 292.8 301C276.7 301 260.3 301 244 301C227.7 301 211.3 301 195 301C178.7 301 162.3 301 146.2 301C130 301 114 301 97.8 301C81.7 301 65.3 301 49 301C32.7 301 16.3 301 8.2 301L0 301Z" fill="#3575d4"></path><path d="M0 257L8.2 255C16.3 253 32.7 249 49 251.5C65.3 254 81.7 263 97.8 267.2C114 271.3 130 270.7 146.2 267.2C162.3 263.7 178.7 257.3 195 254.2C211.3 251 227.7 251 244 246.5C260.3 242 276.7 233 292.8 230.2C309 227.3 325 230.7 341.2 238.8C357.3 247 373.7 260 390 264.2C406.3 268.3 422.7 263.7 439 258C455.3 252.3 471.7 245.7 487.8 240.8C504 236 520 233 536.2 233.7C552.3 234.3 568.7 238.7 585 243.5C601.3 248.3 617.7 253.7 634 257.5C650.3 261.3 666.7 263.7 682.8 263.8C699 264 715 262 731.2 262.3C747.3 262.7 763.7 265.3 780 260.5C796.3 255.7 812.7 243.3 829 241C845.3 238.7 861.7 246.3 877.8 251.8C894 257.3 910 260.7 926.2 259.7C942.3 258.7 958.7 253.3 975 248.8C991.3 244.3 1007.7 240.7 1015.8 238.8L1024 237L1024 301L1015.8 301C1007.7 301 991.3 301 975 301C958.7 301 942.3 301 926.2 301C910 301 894 301 877.8 301C861.7 301 845.3 301 829 301C812.7 301 796.3 301 780 301C763.7 301 747.3 301 731.2 301C715 301 699 301 682.8 301C666.7 301 650.3 301 634 301C617.7 301 601.3 301 585 301C568.7 301 552.3 301 536.2 301C520 301 504 301 487.8 301C471.7 301 455.3 301 439 301C422.7 301 406.3 301 390 301C373.7 301 357.3 301 341.2 301C325 301 309 301 292.8 301C276.7 301 260.3 301 244 301C227.7 301 211.3 301 195 301C178.7 301 162.3 301 146.2 301C130 301 114 301 97.8 301C81.7 301 65.3 301 49 301C32.7 301 16.3 301 8.2 301L0 301Z" fill="#2464c7"></path></svg>