<svg id="visual" viewBox="0 0 1024 300" width="1024" height="300" xmlns="http://www.w3.org/2000/svg" xmlns:xlink="http://www.w3.org/1999/xlink" version="1.1"><rect x="0" y="0" width="1024" height="300" fill="#fafafa"></rect><path d="M0 262L17 234.8C34 207.7 68 153.3 102.2 136.2C136.3 119 170.7 139 204.8 166.7C239 194.3 273 229.7 307.2 242.2C341.3 254.7 375.7 244.3 409.8 215.7C444 187 478 140 512 125.7C546 111.3 580 129.7 614.2 152.7C648.3 175.7 682.7 203.3 716.8 223.2C751 243 785 255 819.2 234.5C853.3 214 887.7 161 921.8 142.8C956 124.7 990 141.3 1007 149.7L1024 158L1024 301L1007 301C990 301 956 301 921.8 301C887.7 301 853.3 301 819.2 301C785 301 751 301 716.8 301C682.7 301 648.3 301 614.2 301C580 301 546 301 512 301C478 301 444 301 409.8 301C375.7 301 341.3 301 307.2 301C273 301 239 301 204.8 301C170.7 301 136.3 301 102.2 301C68 301 34 301 17 301L0 301Z" fill="#c9dfff" stroke-linecap="round" stroke-linejoin="miter"></path></svg>