<svg id="visual" viewBox="0 0 1024 300" width="1024" height="300" xmlns="http://www.w3.org/2000/svg" xmlns:xlink="http://www.w3.org/1999/xlink" version="1.1"><rect x="0" y="0" width="1024" height="300" fill="#c9dfff"></rect><path d="M0 123L17 120.8C34 118.7 68 114.3 102.2 112.8C136.3 111.3 170.7 112.7 204.8 136.5C239 160.3 273 206.7 307.2 212C341.3 217.3 375.7 181.7 409.8 158.5C444 135.3 478 124.7 512 122.8C546 121 580 128 614.2 140.2C648.3 152.3 682.7 169.7 716.8 190.2C751 210.7 785 234.3 819.2 244.7C853.3 255 887.7 252 921.8 239.2C956 226.3 990 203.7 1007 192.3L1024 181L1024 301L1007 301C990 301 956 301 921.8 301C887.7 301 853.3 301 819.2 301C785 301 751 301 716.8 301C682.7 301 648.3 301 614.2 301C580 301 546 301 512 301C478 301 444 301 409.8 301C375.7 301 341.3 301 307.2 301C273 301 239 301 204.8 301C170.7 301 136.3 301 102.2 301C68 301 34 301 17 301L0 301Z" fill="#85b3f8" stroke-linecap="round" stroke-linejoin="miter"></path></svg>