<svg id="visual" viewBox="0 0 960 300" width="960" height="300" xmlns="http://www.w3.org/2000/svg" xmlns:xlink="http://www.w3.org/1999/xlink" version="1.1"><rect x="0" y="0" width="960" height="300" fill="#002233"></rect><path d="M0 259L22.8 248.7C45.7 238.3 91.3 217.7 137 207.8C182.7 198 228.3 199 274 201C319.7 203 365.3 206 411.2 214.3C457 222.7 503 236.3 548.8 239.2C594.7 242 640.3 234 686 224.8C731.7 215.7 777.3 205.3 823 199C868.7 192.7 914.3 190.3 937.2 189.2L960 188L960 301L937.2 301C914.3 301 868.7 301 823 301C777.3 301 731.7 301 686 301C640.3 301 594.7 301 548.8 301C503 301 457 301 411.2 301C365.3 301 319.7 301 274 301C228.3 301 182.7 301 137 301C91.3 301 45.7 301 22.8 301L0 301Z" fill="#0066FF" stroke-linecap="round" stroke-linejoin="miter"></path></svg>